<?xml version="1.0" encoding="UTF-8" standalone="no"?>
<!DOCTYPE svg PUBLIC "-//W3C//DTD SVG 1.1//EN"
 "http://www.w3.org/Graphics/SVG/1.1/DTD/svg11.dtd">
<!-- Generated by graphviz version 15.0.0 (20260523.1842)
 -->
<!-- Title: G Pages: 1 -->
<svg width="812pt" height="714pt"
 viewBox="0.00 0.00 812.00 714.00" xmlns="http://www.w3.org/2000/svg" xmlns:xlink="http://www.w3.org/1999/xlink">
<g id="graph0" class="graph" transform="scale(1 1) rotate(0) translate(4 710.17)">
<title>G</title><style>.edge>path:hover{stroke-width:8}</style>
<polygon fill="white" stroke="none" points="-4,4 -4,-710.17 807.97,-710.17 807.97,4 -4,4"/>
<!-- frontend_app -->
<g id="node1" class="node">
<title>frontend_app</title><style>.edge>path:hover{stroke-width:8}</style>
<ellipse fill="#813737" stroke="black" cx="326.7" cy="-18" rx="41.42" ry="18"/>
<text xml:space="preserve" text-anchor="middle" x="326.7" y="-14.12" font-family="Helvetica,sans-Serif" font-size="10.00" fill="#ffffff">frontend.app</text>
</g>
<!-- frontend_rendering -->
<g id="node2" class="node">
<title>frontend_rendering</title><style>.edge>path:hover{stroke-width:8}</style>
<ellipse fill="#c24747" stroke="black" cx="522.7" cy="-363.61" rx="39.42" ry="21.57"/>
<text xml:space="preserve" text-anchor="middle" x="522.7" y="-365.36" font-family="Helvetica,sans-Serif" font-size="10.00" fill="#ffffff">frontend.</text>
<text xml:space="preserve" text-anchor="middle" x="522.7" y="-354.11" font-family="Helvetica,sans-Serif" font-size="10.00" fill="#ffffff">rendering</text>
</g>
<!-- frontend_tabs_results_tab -->
<g id="node14" class="node">
<title>frontend_tabs_results_tab</title><style>.edge>path:hover{stroke-width:8}</style>
<ellipse fill="#a13535" stroke="black" cx="455.7" cy="-173.52" rx="45.25" ry="29.52"/>
<text xml:space="preserve" text-anchor="middle" x="455.7" y="-180.9" font-family="Helvetica,sans-Serif" font-size="10.00" fill="#ffffff">frontend.</text>
<text xml:space="preserve" text-anchor="middle" x="455.7" y="-169.65" font-family="Helvetica,sans-Serif" font-size="10.00" fill="#ffffff">tabs.</text>
<text xml:space="preserve" text-anchor="middle" x="455.7" y="-158.4" font-family="Helvetica,sans-Serif" font-size="10.00" fill="#ffffff">results_tab</text>
</g>
<!-- frontend_rendering&#45;&gt;frontend_tabs_results_tab -->
<g id="edge1" class="edge">
<title>frontend_rendering&#45;&gt;frontend_tabs_results_tab</title><style>.edge>path:hover{stroke-width:8}</style>
<path fill="none" stroke="black" d="M548.19,-346.63C580.91,-325.14 632.29,-287.55 621.7,-269.57"/>
<path fill="none" stroke="black" d="M621.7,-267.57C614.8,-255.86 548.18,-220.76 501.47,-197.17"/>
<polygon fill="#c24747" stroke="black" points="503.1,-194.08 492.6,-192.72 499.96,-200.33 503.1,-194.08"/>
</g>
<!-- frontend_rendering_metrics -->
<g id="node3" class="node">
<title>frontend_rendering_metrics</title><style>.edge>path:hover{stroke-width:8}</style>
<ellipse fill="#c04040" stroke="black" cx="621.7" cy="-363.61" rx="41.54" ry="29.52"/>
<text xml:space="preserve" text-anchor="middle" x="621.7" y="-370.98" font-family="Helvetica,sans-Serif" font-size="10.00" fill="#ffffff">frontend.</text>
<text xml:space="preserve" text-anchor="middle" x="621.7" y="-359.73" font-family="Helvetica,sans-Serif" font-size="10.00" fill="#ffffff">rendering.</text>
<text xml:space="preserve" text-anchor="middle" x="621.7" y="-348.48" font-family="Helvetica,sans-Serif" font-size="10.00" fill="#ffffff">metrics</text>
</g>
<!-- frontend_rendering_metrics&#45;&gt;frontend_tabs_results_tab -->
<g id="edge2" class="edge">
<title>frontend_rendering_metrics&#45;&gt;frontend_tabs_results_tab</title><style>.edge>path:hover{stroke-width:8}</style>
<path fill="none" stroke="black" d="M628.84,-334.19C632.11,-314.68 633.09,-288.91 621.7,-269.57"/>
</g>
<!-- frontend_rendering_scr_tables -->
<g id="node4" class="node">
<title>frontend_rendering_scr_tables</title><style>.edge>path:hover{stroke-width:8}</style>
<ellipse fill="#b83d3d" stroke="black" cx="724.7" cy="-363.61" rx="43.13" ry="29.52"/>
<text xml:space="preserve" text-anchor="middle" x="724.7" y="-370.98" font-family="Helvetica,sans-Serif" font-size="10.00" fill="#ffffff">frontend.</text>
<text xml:space="preserve" text-anchor="middle" x="724.7" y="-359.73" font-family="Helvetica,sans-Serif" font-size="10.00" fill="#ffffff">rendering.</text>
<text xml:space="preserve" text-anchor="middle" x="724.7" y="-348.48" font-family="Helvetica,sans-Serif" font-size="10.00" fill="#ffffff">scr_tables</text>
</g>
<!-- frontend_rendering_scr_tables&#45;&gt;frontend_tabs_results_tab -->
<g id="edge3" class="edge">
<title>frontend_rendering_scr_tables&#45;&gt;frontend_tabs_results_tab</title><style>.edge>path:hover{stroke-width:8}</style>
<path fill="none" stroke="black" d="M693.88,-342.63C670.54,-325.88 639.55,-299.88 621.7,-269.57"/>
</g>
<!-- frontend_services -->
<g id="node5" class="node">
<title>frontend_services</title><style>.edge>path:hover{stroke-width:8}</style>
<ellipse fill="#ce3b3b" stroke="black" cx="366.7" cy="-495.65" rx="38.36" ry="21.57"/>
<text xml:space="preserve" text-anchor="middle" x="366.7" y="-497.4" font-family="Helvetica,sans-Serif" font-size="10.00" fill="#ffffff">frontend.</text>
<text xml:space="preserve" text-anchor="middle" x="366.7" y="-486.15" font-family="Helvetica,sans-Serif" font-size="10.00" fill="#ffffff">services</text>
</g>
<!-- frontend_tabs_execution_tab -->
<g id="node12" class="node">
<title>frontend_tabs_execution_tab</title><style>.edge>path:hover{stroke-width:8}</style>
<ellipse fill="#a13535" stroke="black" cx="269.7" cy="-363.61" rx="54.27" ry="29.52"/>
<text xml:space="preserve" text-anchor="middle" x="269.7" y="-370.98" font-family="Helvetica,sans-Serif" font-size="10.00" fill="#ffffff">frontend.</text>
<text xml:space="preserve" text-anchor="middle" x="269.7" y="-359.73" font-family="Helvetica,sans-Serif" font-size="10.00" fill="#ffffff">tabs.</text>
<text xml:space="preserve" text-anchor="middle" x="269.7" y="-348.48" font-family="Helvetica,sans-Serif" font-size="10.00" fill="#ffffff">execution_tab</text>
</g>
<!-- frontend_services&#45;&gt;frontend_tabs_execution_tab -->
<g id="edge4" class="edge">
<title>frontend_services&#45;&gt;frontend_tabs_execution_tab</title><style>.edge>path:hover{stroke-width:8}</style>
<path fill="none" stroke="black" d="M372.7,-429.13C369.39,-416.54 345.35,-401.1 321.33,-388.48"/>
<polygon fill="#ce3b3b" stroke="black" points="322.94,-385.37 312.44,-383.95 319.76,-391.61 322.94,-385.37"/>
<path fill="none" stroke="black" d="M372.21,-474.01C374.75,-461.2 376.46,-444.49 372.7,-430.13"/>
</g>
<!-- frontend_tabs_inputs_tab -->
<g id="node13" class="node">
<title>frontend_tabs_inputs_tab</title><style>.edge>path:hover{stroke-width:8}</style>
<ellipse fill="#a83838" stroke="black" cx="384.7" cy="-363.61" rx="43.13" ry="29.52"/>
<text xml:space="preserve" text-anchor="middle" x="384.7" y="-370.98" font-family="Helvetica,sans-Serif" font-size="10.00" fill="#ffffff">frontend.</text>
<text xml:space="preserve" text-anchor="middle" x="384.7" y="-359.73" font-family="Helvetica,sans-Serif" font-size="10.00" fill="#ffffff">tabs.</text>
<text xml:space="preserve" text-anchor="middle" x="384.7" y="-348.48" font-family="Helvetica,sans-Serif" font-size="10.00" fill="#ffffff">inputs_tab</text>
</g>
<!-- frontend_services&#45;&gt;frontend_tabs_inputs_tab -->
<g id="edge5" class="edge">
<title>frontend_services&#45;&gt;frontend_tabs_inputs_tab</title><style>.edge>path:hover{stroke-width:8}</style>
<path fill="none" stroke="black" d="M372.7,-429.13C370.55,-420.95 370.66,-412.08 371.89,-403.62"/>
<polygon fill="#ce3b3b" stroke="black" points="375.3,-404.41 373.87,-393.92 368.44,-403.02 375.3,-404.41"/>
</g>
<!-- frontend_services_config_builder -->
<g id="node6" class="node">
<title>frontend_services_config_builder</title><style>.edge>path:hover{stroke-width:8}</style>
<ellipse fill="#b83d3d" stroke="black" cx="194.7" cy="-495.65" rx="53.74" ry="29.52"/>
<text xml:space="preserve" text-anchor="middle" x="194.7" y="-503.03" font-family="Helvetica,sans-Serif" font-size="10.00" fill="#ffffff">frontend.</text>
<text xml:space="preserve" text-anchor="middle" x="194.7" y="-491.78" font-family="Helvetica,sans-Serif" font-size="10.00" fill="#ffffff">services.</text>
<text xml:space="preserve" text-anchor="middle" x="194.7" y="-480.53" font-family="Helvetica,sans-Serif" font-size="10.00" fill="#ffffff">config_builder</text>
</g>
<!-- frontend_services_config_builder&#45;&gt;frontend_tabs_execution_tab -->
<g id="edge6" class="edge">
<title>frontend_services_config_builder&#45;&gt;frontend_tabs_execution_tab</title><style>.edge>path:hover{stroke-width:8}</style>
<path fill="none" stroke="black" d="M233.44,-474.94C250.1,-464.19 267.77,-449.16 276.7,-430.13"/>
</g>
<!-- frontend_services_temp_storage -->
<g id="node7" class="node">
<title>frontend_services_temp_storage</title><style>.edge>path:hover{stroke-width:8}</style>
<ellipse fill="#c24747" stroke="black" cx="513.7" cy="-495.65" rx="53.21" ry="29.52"/>
<text xml:space="preserve" text-anchor="middle" x="513.7" y="-503.03" font-family="Helvetica,sans-Serif" font-size="10.00" fill="#ffffff">frontend.</text>
<text xml:space="preserve" text-anchor="middle" x="513.7" y="-491.78" font-family="Helvetica,sans-Serif" font-size="10.00" fill="#ffffff">services.</text>
<text xml:space="preserve" text-anchor="middle" x="513.7" y="-480.53" font-family="Helvetica,sans-Serif" font-size="10.00" fill="#ffffff">temp_storage</text>
</g>
<!-- frontend_services_temp_storage&#45;&gt;frontend_tabs_inputs_tab -->
<g id="edge7" class="edge">
<title>frontend_services_temp_storage&#45;&gt;frontend_tabs_inputs_tab</title><style>.edge>path:hover{stroke-width:8}</style>
<path fill="none" stroke="black" d="M477.92,-473.42C462.01,-462.34 444.29,-447.47 432.7,-430.13"/>
</g>
<!-- frontend_services_workflow_runner -->
<g id="node8" class="node">
<title>frontend_services_workflow_runner</title><style>.edge>path:hover{stroke-width:8}</style>
<ellipse fill="#b83d3d" stroke="black" cx="61.7" cy="-495.65" rx="61.7" ry="29.52"/>
<text xml:space="preserve" text-anchor="middle" x="61.7" y="-503.03" font-family="Helvetica,sans-Serif" font-size="10.00" fill="#ffffff">frontend.</text>
<text xml:space="preserve" text-anchor="middle" x="61.7" y="-491.78" font-family="Helvetica,sans-Serif" font-size="10.00" fill="#ffffff">services.</text>
<text xml:space="preserve" text-anchor="middle" x="61.7" y="-480.53" font-family="Helvetica,sans-Serif" font-size="10.00" fill="#ffffff">workflow_runner</text>
</g>
<!-- frontend_services_workflow_runner&#45;&gt;frontend_tabs_execution_tab -->
<g id="edge8" class="edge">
<title>frontend_services_workflow_runner&#45;&gt;frontend_tabs_execution_tab</title><style>.edge>path:hover{stroke-width:8}</style>
<path fill="none" stroke="black" d="M106.91,-475.13C115.08,-471.91 123.59,-468.77 131.7,-466.13 194.83,-445.55 248.5,-490.25 276.7,-430.13"/>
<path fill="none" stroke="black" d="M276.7,-429.13C280.28,-421.49 281.17,-412.79 280.63,-404.31"/>
<polygon fill="#b83d3d" stroke="black" points="284.11,-403.95 279.33,-394.5 277.17,-404.87 284.11,-403.95"/>
</g>
<!-- frontend_state -->
<g id="node9" class="node">
<title>frontend_state</title><style>.edge>path:hover{stroke-width:8}</style>
<ellipse fill="#c24747" stroke="black" cx="218.7" cy="-90" rx="44.97" ry="18"/>
<text xml:space="preserve" text-anchor="middle" x="218.7" y="-86.12" font-family="Helvetica,sans-Serif" font-size="10.00" fill="#ffffff">frontend.state</text>
</g>
<!-- frontend_state&#45;&gt;frontend_app -->
<g id="edge9" class="edge">
<title>frontend_state&#45;&gt;frontend_app</title><style>.edge>path:hover{stroke-width:8}</style>
<path fill="none" stroke="black" d="M241.6,-74.15C257.02,-64.16 277.58,-50.83 294.63,-39.78"/>
<polygon fill="#c24747" stroke="black" points="296.44,-42.78 302.92,-34.41 292.63,-36.91 296.44,-42.78"/>
</g>
<!-- frontend_state_session_state -->
<g id="node10" class="node">
<title>frontend_state_session_state</title><style>.edge>path:hover{stroke-width:8}</style>
<ellipse fill="#c04040" stroke="black" cx="749.7" cy="-268.57" rx="54.27" ry="29.52"/>
<text xml:space="preserve" text-anchor="middle" x="749.7" y="-275.94" font-family="Helvetica,sans-Serif" font-size="10.00" fill="#ffffff">frontend.</text>
<text xml:space="preserve" text-anchor="middle" x="749.7" y="-264.69" font-family="Helvetica,sans-Serif" font-size="10.00" fill="#ffffff">state.</text>
<text xml:space="preserve" text-anchor="middle" x="749.7" y="-253.44" font-family="Helvetica,sans-Serif" font-size="10.00" fill="#ffffff">session_state</text>
</g>
<!-- frontend_state_session_state&#45;&gt;frontend_app -->
<g id="edge10" class="edge">
<title>frontend_state_session_state&#45;&gt;frontend_app</title><style>.edge>path:hover{stroke-width:8}</style>
<path fill="none" stroke="black" d="M708.61,-248.95C634.75,-214.57 484.56,-140.16 455.7,-91"/>
</g>
<!-- frontend_tabs -->
<g id="node11" class="node">
<title>frontend_tabs</title><style>.edge>path:hover{stroke-width:8}</style>
<ellipse fill="#c24747" stroke="black" cx="362.7" cy="-90" rx="43.19" ry="18"/>
<text xml:space="preserve" text-anchor="middle" x="362.7" y="-86.12" font-family="Helvetica,sans-Serif" font-size="10.00" fill="#ffffff">frontend.tabs</text>
</g>
<!-- frontend_tabs&#45;&gt;frontend_app -->
<g id="edge11" class="edge">
<title>frontend_tabs&#45;&gt;frontend_app</title><style>.edge>path:hover{stroke-width:8}</style>
<path fill="none" stroke="black" d="M353.98,-72.05C349.96,-64.23 345.08,-54.75 340.57,-45.98"/>
<polygon fill="#c24747" stroke="black" points="343.71,-44.43 336.02,-37.13 337.48,-47.63 343.71,-44.43"/>
</g>
<!-- frontend_tabs_execution_tab&#45;&gt;frontend_app -->
<g id="edge12" class="edge">
<title>frontend_tabs_execution_tab&#45;&gt;frontend_app</title><style>.edge>path:hover{stroke-width:8}</style>
<path fill="none" stroke="black" d="M272.28,-333.89C277.31,-281.43 289.83,-166.8 310.7,-72 312.52,-63.71 314.99,-54.82 317.45,-46.75"/>
<polygon fill="#a13535" stroke="black" points="320.71,-48.04 320.38,-37.45 314.03,-45.94 320.71,-48.04"/>
</g>
<!-- frontend_tabs_inputs_tab&#45;&gt;frontend_app -->
<g id="edge13" class="edge">
<title>frontend_tabs_inputs_tab&#45;&gt;frontend_app</title><style>.edge>path:hover{stroke-width:8}</style>
<path fill="none" stroke="black" d="M381.12,-333.98C377.23,-296.87 372.79,-230.31 382.7,-174.52"/>
<path fill="none" stroke="black" d="M455.7,-89C436.02,-60.44 400.8,-42.46 372.13,-31.88"/>
<polygon fill="#a83838" stroke="black" points="373.53,-28.67 362.93,-28.69 371.23,-35.28 373.53,-28.67"/>
<path fill="none" stroke="black" d="M382.7,-172.52C385.55,-157.56 391.99,-155.74 401.7,-144 423.13,-118.09 474.77,-118.69 455.7,-91"/>
</g>
<!-- frontend_tabs_results_tab&#45;&gt;frontend_app -->
<g id="edge14" class="edge">
<title>frontend_tabs_results_tab&#45;&gt;frontend_app</title><style>.edge>path:hover{stroke-width:8}</style>
<path fill="none" stroke="black" d="M462.52,-143.86C464.87,-127.32 464.94,-106.74 455.7,-91"/>
</g>
<!-- model -->
<g id="node15" class="node">
<title>model</title><style>.edge>path:hover{stroke-width:8}</style>
<ellipse fill="#85ce3b" stroke="black" cx="172.7" cy="-688.17" rx="27" ry="18"/>
<text xml:space="preserve" text-anchor="middle" x="172.7" y="-684.3" font-family="Helvetica,sans-Serif" font-size="10.00" fill="#000000">model</text>
</g>
<!-- model&#45;&gt;frontend_services_config_builder -->
<g id="edge15" class="edge">
<title>model&#45;&gt;frontend_services_config_builder</title><style>.edge>path:hover{stroke-width:8}</style>
<path fill="none" stroke="black" d="M194.7,-578.17C190.14,-565.15 189.06,-550.23 189.46,-536.74"/>
<polygon fill="#85ce3b" stroke="black" points="192.95,-537.05 190.05,-526.86 185.96,-536.63 192.95,-537.05"/>
</g>
<!-- model&#45;&gt;frontend_services_workflow_runner -->
<g id="edge16" class="edge">
<title>model&#45;&gt;frontend_services_workflow_runner</title><style>.edge>path:hover{stroke-width:8}</style>
<path fill="none" stroke="black" d="M194.7,-578.17C188.54,-560.56 150.5,-538.3 116.67,-521.49"/>
<polygon fill="#85ce3b" stroke="black" points="118.23,-518.36 107.71,-517.13 115.17,-524.65 118.23,-518.36"/>
<path fill="none" stroke="black" d="M181.37,-670.86C191.51,-649.56 205.58,-611.33 194.7,-580.17"/>
</g>
<!-- model_capital -->
<g id="node16" class="node">
<title>model_capital</title><style>.edge>path:hover{stroke-width:8}</style>
<ellipse fill="#7ab83d" stroke="black" cx="61.7" cy="-688.17" rx="43.64" ry="18"/>
<text xml:space="preserve" text-anchor="middle" x="61.7" y="-684.3" font-family="Helvetica,sans-Serif" font-size="10.00" fill="#000000">model.capital</text>
</g>
<!-- model_capital&#45;&gt;frontend_services_workflow_runner -->
<g id="edge17" class="edge">
<title>model_capital&#45;&gt;frontend_services_workflow_runner</title><style>.edge>path:hover{stroke-width:8}</style>
<path fill="none" stroke="black" d="M61.7,-669.93C61.7,-640.02 61.7,-577.78 61.7,-536.62"/>
<polygon fill="#7ab83d" stroke="black" points="65.2,-536.86 61.7,-526.86 58.2,-536.86 65.2,-536.86"/>
</g>
<!-- model_config -->
<g id="node17" class="node">
<title>model_config</title><style>.edge>path:hover{stroke-width:8}</style>
<ellipse fill="#85b653" stroke="black" cx="259.7" cy="-688.17" rx="42.31" ry="18"/>
<text xml:space="preserve" text-anchor="middle" x="259.7" y="-684.3" font-family="Helvetica,sans-Serif" font-size="10.00" fill="#000000">model.config</text>
</g>
<!-- model_config&#45;&gt;frontend_services_config_builder -->
<g id="edge18" class="edge">
<title>model_config&#45;&gt;frontend_services_config_builder</title><style>.edge>path:hover{stroke-width:8}</style>
<path fill="none" stroke="black" d="M253.81,-669.93C243.54,-639.81 222.07,-576.9 208.03,-535.74"/>
<polygon fill="#85b653" stroke="black" points="211.4,-534.78 204.86,-526.45 204.78,-537.04 211.4,-534.78"/>
</g>
<!-- pandas -->
<g id="node18" class="node">
<title>pandas</title><style>.edge>path:hover{stroke-width:8}</style>
<ellipse fill="#40bfc0" stroke="black" cx="715.7" cy="-579.17" rx="28.11" ry="18"/>
<text xml:space="preserve" text-anchor="middle" x="715.7" y="-575.3" font-family="Helvetica,sans-Serif" font-size="10.00" fill="#000000">pandas</text>
</g>
<!-- pandas&#45;&gt;frontend_rendering_scr_tables -->
<g id="edge19" class="edge">
<title>pandas&#45;&gt;frontend_rendering_scr_tables</title><style>.edge>path:hover{stroke-width:8}</style>
<path fill="none" stroke="black" d="M716.43,-560.7C717.86,-526.81 721.04,-451.39 723.01,-404.59"/>
<polygon fill="#40bfc0" stroke="black" points="726.5,-405 723.42,-394.86 719.5,-404.71 726.5,-405"/>
</g>
<!-- streamlit -->
<g id="node19" class="node">
<title>streamlit</title><style>.edge>path:hover{stroke-width:8}</style>
<ellipse fill="#7f06f9" stroke="black" cx="432.7" cy="-579.17" rx="31.66" ry="18"/>
<text xml:space="preserve" text-anchor="middle" x="432.7" y="-575.3" font-family="Helvetica,sans-Serif" font-size="10.00" fill="#ffffff">streamlit</text>
</g>
<!-- streamlit&#45;&gt;frontend_app -->
<g id="edge20" class="edge">
<title>streamlit&#45;&gt;frontend_app</title><style>.edge>path:hover{stroke-width:8}</style>
<path fill="none" stroke="black" d="M455.7,-267.57C446.11,-215.88 372.86,-226.15 382.7,-174.52"/>
<path fill="none" stroke="black" d="M661.7,-494.65C685.15,-472.87 643.11,-459.19 629.7,-430.13"/>
<path fill="none" stroke="black" d="M629.7,-429.13C600.05,-364.92 522.78,-444.99 474.7,-393.13 436.92,-352.38 465.82,-324.2 455.7,-269.57"/>
<path fill="none" stroke="black" d="M463.74,-574.94C511.9,-568.39 604.95,-549.35 661.7,-496.65"/>
</g>
<!-- streamlit&#45;&gt;frontend_rendering_metrics -->
<g id="edge21" class="edge">
<title>streamlit&#45;&gt;frontend_rendering_metrics</title><style>.edge>path:hover{stroke-width:8}</style>
<path fill="none" stroke="black" d="M629.7,-429.13C626.25,-421.68 624.12,-413.25 622.83,-405.01"/>
<polygon fill="#7f06f9" stroke="black" points="626.31,-404.63 621.7,-395.1 619.36,-405.43 626.31,-404.63"/>
</g>
<!-- streamlit&#45;&gt;frontend_rendering_scr_tables -->
<g id="edge22" class="edge">
<title>streamlit&#45;&gt;frontend_rendering_scr_tables</title><style>.edge>path:hover{stroke-width:8}</style>
<path fill="none" stroke="black" d="M629.7,-429.13C626.77,-422.8 655.39,-404.14 681.96,-388.5"/>
<polygon fill="#7f06f9" stroke="black" points="683.39,-391.71 690.28,-383.67 679.88,-385.66 683.39,-391.71"/>
</g>
<!-- streamlit&#45;&gt;frontend_state_session_state -->
<g id="edge23" class="edge">
<title>streamlit&#45;&gt;frontend_state_session_state</title><style>.edge>path:hover{stroke-width:8}</style>
<path fill="none" stroke="black" d="M661.7,-494.65C711.72,-448.33 748.66,-455.28 776.7,-393.13 789.02,-365.81 780.53,-332.49 769.91,-307.34"/>
<polygon fill="#7f06f9" stroke="black" points="773.21,-306.16 765.91,-298.48 766.84,-309.04 773.21,-306.16"/>
</g>
<!-- streamlit&#45;&gt;frontend_tabs_execution_tab -->
<g id="edge24" class="edge">
<title>streamlit&#45;&gt;frontend_tabs_execution_tab</title><style>.edge>path:hover{stroke-width:8}</style>
<path fill="none" stroke="black" d="M404.33,-570.95C379.26,-563.28 343.13,-548.93 319.7,-525.17 287.14,-492.17 257.01,-472.11 276.7,-430.13"/>
</g>
<!-- streamlit&#45;&gt;frontend_tabs_inputs_tab -->
<g id="edge25" class="edge">
<title>streamlit&#45;&gt;frontend_tabs_inputs_tab</title><style>.edge>path:hover{stroke-width:8}</style>
<path fill="none" stroke="black" d="M432.7,-429.13C426.12,-419.29 418.63,-408.9 411.57,-399.39"/>
<polygon fill="#7f06f9" stroke="black" points="414.4,-397.34 405.59,-391.45 408.8,-401.55 414.4,-397.34"/>
<path fill="none" stroke="black" d="M438.24,-561.36C446.83,-531.96 459.7,-470.51 432.7,-430.13"/>
</g>
<!-- streamlit&#45;&gt;frontend_tabs_results_tab -->
<g id="edge26" class="edge">
<title>streamlit&#45;&gt;frontend_tabs_results_tab</title><style>.edge>path:hover{stroke-width:8}</style>
<path fill="none" stroke="black" d="M455.7,-267.57C452.52,-250.44 452.02,-231.23 452.5,-214.74"/>
<polygon fill="#7f06f9" stroke="black" points="456,-214.93 452.94,-204.79 449.01,-214.62 456,-214.93"/>
</g>
</g>
</svg>
